PathFileType	4	(X/Y/Z)	C:\Users\dbl\Desktop\LZH\BX\Trimmed_bx_y_0_1801.trc
DataRate	CameraRate	NumFrames	NumMarkers	Units	OrigDataRate	OrigDataStartFrame	OrigNumFrames
50.00	50.00	      7	43	mm	50.00	369	      1475
Frame#	Time	Top.Head			R.Acromium			L.Acromium			Sternum			R.ASIS			L.ASIS			V.Sacral			R.Thigh.Upper			R.Thigh.Front			R.Thigh.Rear			R.Knee.Lat			R.Knee.Med			R.Shank.Upper			R.Shank.Front			R.Shank.Rear			R.Ankle.Lat			R.Midfoot.Lat			R.Toe.Lat			R.Toe.Tip			R.Toe.Med			R.Ankle.Med			R.Midfoot.Sup			R.Heel			L.Thigh.Upper			L.Thigh.Front			L.Thigh.Rear			L.Knee.Lat			L.Knee.Med			L.Shank.Upper			L.Shank.Front			L.Shank.Rear			L.Ankle.Lat			L.Midfoot.Lat			L.Toe.Lat			L.Toe.Tip			L.Toe.Med			L.Ankle.Med			L.Midfoot.Sup			L.Heel			origin1 front left			origin2 front right			origin 3 back right			origin 4 back leftt			
		X1	Y1	Z1	X2	Y2	Z2	X3	Y3	Z3	X4	Y4	Z4	X5	Y5	Z5	X6	Y6	Z6	X7	Y7	Z7	X8	Y8	Z8	X9	Y9	Z9	X10	Y10	Z10	X11	Y11	Z11	X12	Y12	Z12	X13	Y13	Z13	X14	Y14	Z14	X15	Y15	Z15	X16	Y16	Z16	X17	Y17	Z17	X18	Y18	Z18	X19	Y19	Z19	X20	Y20	Z20	X21	Y21	Z21	X22	Y22	Z22	X23	Y23	Z23	X24	Y24	Z24	X25	Y25	Z25	X26	Y26	Z26	X27	Y27	Z27	X28	Y28	Z28	X29	Y29	Z29	X30	Y30	Z30	X31	Y31	Z31	X32	Y32	Z32	X33	Y33	Z33	X34	Y34	Z34	X35	Y35	Z35	X36	Y36	Z36	X37	Y37	Z37	X38	Y38	Z38	X39	Y39	Z39	X40	Y40	Z40	X41	Y41	Z41	X42	Y42	Z42	X43	Y43	Z43	

369	7.360	-702.02856	254.22183	1831.75500	-623.55585	52.41101	1537.00574	-614.50061	448.25772	1519.56787	-530.05823	254.67531	1400.53613	-541.44281	135.00882	1055.38562	-535.29346	375.99106	1063.55542	-737.70184	238.41859	1049.22864	-575.19775	84.69363	893.80511	-526.81616	144.66815	845.80884	-623.17877	83.97614	750.80499	-647.39148	118.95161	603.81793	-631.82233	229.56375	567.32318	-681.45923	119.77917	543.23914	-599.35675	170.51221	549.47284	-721.45447	123.91718	476.40582	-687.58270	146.79579	214.74260	-618.00507	79.03436	166.82071	-573.17023	51.46660	161.53780	-492.76038	91.65626	160.36407	-531.34094	144.02162	163.81757	-631.83069	220.07613	219.10548	-591.42749	189.78020	168.54803	-714.80957	216.67017	170.89792	-571.84027	428.78467	886.94263	-524.94391	369.76639	839.45514	-618.89984	429.93188	751.24329	-657.06738	408.48724	626.51740	-617.02728	307.46933	579.81079	-663.60126	406.25311	565.39996	-608.75897	365.97873	542.81403	-713.57239	409.83063	512.63385	-680.37482	412.19516	215.88464	-585.92474	467.73340	165.51157	-547.52533	480.04172	159.72453	-488.55035	429.66995	168.46764	-524.90240	388.33035	177.50865	-642.30652	325.82114	206.77901	-593.13318	347.39841	168.90764	-731.42847	341.52853	164.84023	-443.97864	448.54398	148.00670	-450.42694	75.81127	143.62971	-806.21466	82.63504	142.62096	-799.09949	457.65164	145.06656	
370	7.380	-702.02197	253.86263	1831.79834	-623.73108	52.19669	1536.96680	-614.76544	448.03351	1519.58362	-530.31213	254.36758	1400.53162	-541.60211	134.80748	1055.37109	-535.61975	375.77676	1063.50439	-737.89917	238.19646	1049.21997	-575.36011	84.56330	893.76068	-526.97754	144.54317	845.88171	-623.23462	83.95431	750.73297	-647.50537	118.83873	603.78571	-631.92102	229.54254	567.28857	-681.50421	119.68882	543.23602	-599.45428	170.41682	549.38513	-721.49097	123.86678	476.40518	-687.60522	146.80321	214.73341	-618.03583	79.00738	166.81812	-573.15759	51.46455	161.56551	-492.76462	91.64861	160.37265	-531.37085	144.00700	163.82462	-631.82739	220.07167	219.11722	-591.40125	189.80721	168.56850	-714.82776	216.65744	170.88141	-572.07947	428.69873	886.97809	-525.07684	369.61377	839.55157	-619.08899	429.75854	751.25745	-657.16382	408.49350	626.56494	-617.17322	307.41550	579.80695	-663.67407	406.23001	565.39636	-608.81250	365.95416	542.80103	-713.62347	409.78015	512.64032	-680.37268	412.20102	215.86629	-585.90399	467.75861	165.43803	-547.51227	480.02011	159.71324	-488.52844	429.59872	168.46931	-524.92627	388.34277	177.50031	-642.32855	325.83179	206.76422	-593.14893	347.41168	168.88013	-731.43243	341.54358	164.84773	-443.97110	448.51709	147.98804	-450.42691	75.80438	143.60896	-806.22089	82.61948	142.62456	-799.09985	457.68314	145.01489	
371	7.400	-701.99890	253.52127	1831.84692	-623.90082	51.98705	1536.94446	-615.05902	447.83426	1519.60022	-530.51813	254.10223	1400.55334	-541.74695	134.62135	1055.36951	-535.89636	375.55283	1063.49023	-738.07458	237.97841	1049.21655	-575.49695	84.42066	893.73651	-527.09570	144.41148	845.96576	-623.28223	83.92841	750.67682	-647.59692	118.74110	603.76599	-632.01746	229.50819	567.23560	-681.55231	119.58300	543.24902	-599.52155	170.32645	549.29840	-721.50714	123.79320	476.40701	-687.61664	146.81340	214.72020	-618.07220	78.96834	166.81322	-573.15045	51.46072	161.59171	-492.77026	91.63894	160.39148	-531.39148	143.98686	163.83603	-631.83319	220.06749	219.13068	-591.38568	189.84010	168.58205	-714.85126	216.63535	170.85802	-572.30353	428.61734	887.06311	-525.20782	369.47696	839.61255	-619.27063	429.55496	751.24261	-657.27368	408.54388	626.63373	-617.27850	307.35104	579.78668	-663.71045	406.19736	565.39746	-608.82483	365.94583	542.78522	-713.65845	409.71790	512.65082	-680.38324	412.21872	215.88074	-585.88397	467.78015	165.35495	-547.50549	480.00278	159.71005	-488.52994	429.58136	168.47688	-524.94635	388.36472	177.49126	-642.34637	325.83444	206.76054	-593.15814	347.42972	168.84871	-731.43945	341.55292	164.85101	-443.95450	448.49808	147.98511	-450.42691	75.79557	143.59100	-806.24042	82.62250	142.60564	-799.10602	457.69464	144.99696	
372	7.420	-701.96436	253.20258	1831.89502	-624.04163	51.77066	1536.91663	-615.37726	447.64658	1519.62000	-530.66882	253.89781	1400.58606	-541.87146	134.46504	1055.38306	-536.12396	375.34824	1063.52649	-738.22650	237.75870	1049.21948	-575.60199	84.26955	893.73926	-527.17456	144.27161	846.04407	-623.31732	83.88988	750.65240	-647.65363	118.65782	603.75879	-632.09961	229.45653	567.16449	-681.59271	119.45805	543.27161	-599.56329	170.23567	549.21375	-721.50854	123.69360	476.40002	-687.61694	146.81921	214.70590	-618.10950	78.92535	166.80595	-573.15015	51.45528	161.60872	-492.77606	91.63158	160.41125	-531.39844	143.96840	163.85394	-631.85236	220.05505	219.13939	-591.38330	189.86740	168.58400	-714.87292	216.60788	170.82693	-572.52161	428.53302	887.19189	-525.33813	369.36346	839.64758	-619.44135	429.33304	751.20062	-657.38885	408.60922	626.72205	-617.32050	307.27808	579.75604	-663.71429	406.15207	565.39795	-608.79974	365.94733	542.77216	-713.66956	409.64374	512.66095	-680.40564	412.23410	215.91193	-585.86926	467.79300	165.27771	-547.50220	479.99216	159.71452	-488.55032	429.60947	168.48914	-524.95880	388.38708	177.48409	-642.34857	325.82721	206.76993	-593.16162	347.44757	168.82393	-731.44690	341.55411	164.84825	-443.93198	448.48468	147.99617	-450.42645	75.78669	143.58276	-806.26819	82.64339	142.57057	-799.11798	457.68411	145.01758	
373	7.440	-701.92487	252.89824	1831.93762	-624.13782	51.53516	1536.86475	-615.71826	447.45822	1519.64355	-530.77820	253.74916	1400.60962	-541.97131	134.34665	1055.41199	-536.31116	375.18753	1063.61646	-738.35699	237.53099	1049.22595	-575.67120	84.11880	893.76312	-527.21869	144.13161	846.10260	-623.33124	83.83437	750.66357	-647.66888	118.57782	603.76367	-632.15546	229.38797	567.08063	-681.61334	119.31300	543.29431	-599.58154	170.14304	549.13519	-721.49670	123.56803	476.37823	-687.60675	146.81676	214.69141	-618.14124	78.88590	166.79930	-573.15631	51.44800	161.61290	-492.77960	91.63137	160.42047	-531.39484	143.95575	163.87802	-631.88373	220.02780	219.13972	-591.39282	189.88007	168.57486	-714.88727	216.58020	170.79184	-572.74323	428.43820	887.34265	-525.46295	369.27490	839.66974	-619.59674	429.11121	751.14362	-657.48785	408.64148	626.80908	-617.28503	307.20337	579.72662	-663.69006	406.09329	565.39374	-608.74683	365.95181	542.76520	-713.64935	409.55292	512.66406	-680.43329	412.23666	215.94150	-585.86383	467.78900	165.22624	-547.49744	479.98737	159.72324	-488.58160	429.66736	168.50497	-524.96332	388.39914	177.48032	-642.33087	325.81259	206.78844	-593.16089	347.46063	168.81216	-731.45135	341.55096	164.84026	-443.91074	448.47610	148.01433	-450.42511	75.78196	143.58733	-806.29462	82.67324	142.53328	-799.13293	457.65826	145.06424	
374	7.460	-701.88641	252.58867	1831.97278	-624.18579	51.27240	1536.78381	-616.07697	447.26410	1519.67175	-530.87207	253.63504	1400.60889	-542.04706	134.26440	1055.45288	-536.46655	375.08087	1063.75110	-738.47394	237.29150	1049.22974	-575.70288	83.98119	893.79254	-527.23120	144.00447	846.13654	-623.31750	83.76032	750.69977	-647.64471	118.48589	603.78247	-632.17792	229.30464	566.99457	-681.60657	119.15074	543.30786	-599.57642	170.05270	549.06982	-721.46906	123.41976	476.34573	-687.58905	146.80669	214.67630	-618.16168	78.85466	166.79779	-573.16748	51.43903	161.60547	-492.77869	91.64075	160.41240	-531.38916	143.94958	163.90567	-631.92255	219.98412	219.13103	-591.40930	189.87534	168.56004	-714.89453	216.55565	170.75922	-572.97101	428.32819	887.48749	-525.57721	369.20837	839.69000	-619.73395	428.90857	751.08838	-657.54645	408.60190	626.87128	-617.16949	307.13654	579.71191	-663.64435	406.02197	565.38324	-608.68011	365.95282	542.76611	-713.59583	409.43710	512.65723	-680.46021	412.22552	215.96201	-585.86841	467.76276	165.21539	-547.48907	479.98550	159.73145	-488.61685	429.74197	168.52425	-524.96301	388.39523	177.48077	-642.29974	325.79593	206.80688	-593.15686	347.46689	168.81319	-731.45050	341.54974	164.82982	-443.89886	448.47488	148.03117	-450.42264	75.78500	143.60336	-806.30994	82.69989	142.50867	-799.14612	457.62823	145.11443	
375	7.480	-701.85382	252.25034	1832.00159	-624.19189	50.98376	1536.68445	-616.43982	447.06451	1519.70593	-530.97449	253.53148	1400.58154	-542.10370	134.20810	1055.50037	-536.59601	375.02121	1063.91162	-738.58820	237.03944	1049.22473	-575.69727	83.86789	893.81061	-527.21429	143.90007	846.15045	-623.27319	83.67054	750.74042	-647.58911	118.37179	603.81689	-632.16479	229.20699	566.91901	-681.57257	118.97787	543.30823	-599.54932	169.97105	549.02325	-721.41956	123.25626	476.31488	-687.56982	146.79297	214.66075	-618.16809	78.83405	166.80412	-573.18127	51.42962	161.59096	-492.77286	91.65755	160.38968	-531.39044	143.94891	163.93269	-631.96234	219.92813	219.11690	-591.42584	189.85704	168.54720	-714.90149	216.53395	170.73515	-573.19781	428.20361	887.60553	-525.67920	369.15900	839.71387	-619.85345	428.73688	751.04980	-657.55078	408.48041	626.89789	-616.98541	307.08582	579.72168	-663.58600	405.93994	565.36743	-608.61432	365.94412	542.77576	-713.51471	409.28903	512.64532	-680.48444	412.20807	215.97934	-585.87811	467.71881	165.24290	-547.47925	479.98386	159.73511	-488.65262	429.82706	168.54716	-524.96228	388.37845	177.48598	-642.26910	325.78238	206.81516	-593.14948	347.46652	168.82217	-731.44440	341.55359	164.81958	-443.90088	448.48596	148.04176	-450.41891	75.79626	143.62605	-806.30914	82.71478	142.50548	-799.15314	457.60229	145.14853	
